inDegrees=no
nColumns=32
nRows=12
DataType=double
version=3
OpenSimVersion=4.5
endheader
time	pelvis_tilt	pelvis_list	pelvis_rotation	pelvis_tz	pelvis_ty	pelvis_tx	hip_flexion_r	hip_adduction_r	hip_rotation_r	knee_angle_r	ankle_angle_r	subtalar_angle_r	mtp_angle_r	hip_flexion_l	hip_adduction_l	hip_rotation_l	knee_angle_l	ankle_angle_l	subtalar_angle_l	mtp_angle_l	lumbar_extension	lumbar_bending	lumbar_rotation	arm_flex_r	arm_add_r	arm_rot_r	elbow_flex_r	arm_flex_l	arm_add_l	arm_rot_l	elbow_flex_l
0.2599999999999999	-0.1447664778772438	-0.03273934851704647	-0.004772057636224179	0.01139986000000004	0.83135859	0.33390037	0.2697181024733499	0.1282471089920721	-0.05082347312047847	-0.2385140583850453	0.2019333594607652	-0.1123481943121173	0	0.5323834109462667	-0.07524680817049705	-0.1117201389770505	-1.226287069084335	0.03490811220298208	-0.09976684039519557	0	0.06820647878798299	0.09583849799523557	0.05812108602588506	-0.1154540277873276	-0.09858479067747533	-0.453614932388967	0.5914175095961979	-0.2113782547846248	-0.02523702028820188	-0.4807185220983177	0.5929337554826887
0.2699999999999999	-0.1400896013320596	-0.02588354112212315	-0.003649496071386267	0.01149556000000002	0.8326093	0.3455156	0.242477928532726	0.1214664702905549	-0.05257644202767462	-0.2257935767685314	0.2087331983548506	-0.1054433567592977	0	0.55589883479511	-0.06919900739101938	-0.1132085964293228	-1.210823797835923	0.06265508961581237	-0.09596384352785652	0	0.06157592129791067	0.08656767622591631	0.06382041070171811	-0.1113294438823989	-0.09947833816797261	-0.4450534181872448	0.6027974488437496	-0.2132202541586956	-0.02415660947040568	-0.4967068252121767	0.5722617969184535
0.2799999999999999	-0.1394208949836441	-0.02328776385414527	-0.003267692904976898	0.01139168000000002	0.83321577	0.35698115	0.2209119936505961	0.1188198835560926	-0.05886635784804867	-0.2149030245271132	0.2182702193124804	-0.1054249997352911	0	0.5835466120565801	-0.06635775850002855	-0.1125984396202682	-1.190583240156885	0.06770770627379676	-0.09530964403325953	0	0.05903565077123484	0.08344386830287144	0.06545091334596033	-0.1031538659605898	-0.1011278982368503	-0.443425259520188	0.6089874927355344	-0.2245899907350391	-0.02026447584564049	-0.4997045568332429	0.5639723615702258
0.2899999999999999	-0.1305743794276565	-0.01314367511559162	-0.001725993351888823	0.01103288000000002	0.83466537	0.36908935	0.1918435300717087	0.1065372460567754	-0.06756079458027354	-0.2091992197656232	0.2437273812953619	-0.0753801144989022	0	0.5947633113573246	-0.05286061304582583	-0.113756597176792	-1.156820112463364	0.1010367992057461	-0.09693628862719021	0	0.04884532008786074	0.07148762238350864	0.0692990344793792	-0.103370527294208	-0.102104508215378	-0.432983341894067	0.6248450370035645	-0.2257730387810914	-0.01711970250402186	-0.5208981564372546	0.5342270018860825
0.2999999999999999	-0.1317323509168056	-0.01060269526661449	-0.001404823338484767	0.01126942000000003	0.8348458600000001	0.38078748	0.1711390399664796	0.1045760283029556	-0.0685922738707596	-0.1977008168186911	0.2505703982388783	-0.07143477451188997	0	0.6162700807995423	-0.05000105338205357	-0.1154045024990059	-1.119622289724721	0.1027238904857928	-0.09308416981711964	0	0.04974297608341721	0.06752015965009568	0.06944201813488787	-0.09600109321741722	-0.102346824841803	-0.431184298912612	0.6313343093925563	-0.238369158183485	-0.01546903205667407	-0.5250291762438	0.5259956318967395
0.3099999999999999	-0.128818845681014	-0.003596464108172586	-0.0004658679706556033	0.01148729000000004	0.83541359	0.39285406	0.1458460968855829	0.09751434481704339	-0.06941818898007748	-0.1864966046506129	0.2580672902202837	-0.06110538733835709	0	0.6276009715827241	-0.04203879797900359	-0.1195875200272913	-1.070555937649729	0.1139672336338324	-0.09272073502005497	0	0.04660812947645223	0.0580939805390028	0.07199714176256404	-0.09300230776654873	-0.1001886758288942	-0.4275217830731672	0.6405112401275669	-0.2458072720135393	-0.01601929928870992	-0.5334223014283556	0.5122658981068295
0.32	-0.1264871314665625	0.00187633154700528	0.000238608634843652	0.01119256000000002	0.83554522	0.4046141	0.1216624557557223	0.09138271953878385	-0.07386317082977635	-0.1756489503332807	0.2599701797686335	-0.05712178432362046	0	0.6377558575960498	-0.03180460647339516	-0.1204585112316017	-1.01641156739482	0.1363766344817052	-0.1002639037084453	0	0.04363666383889813	0.05196517763267668	0.07369141856314119	-0.08838978565329854	-0.1008832236706059	-0.4252609198629822	0.6500568440908593	-0.2534717178720642	-0.01424276180436068	-0.5393782369771875	0.4993604731997268
0.33	-0.1116244610411851	0.007301631741501876	0.0008184384927012229	0.01102373000000001	0.83665308	0.41695611	0.08160599052382914	0.08511982385869164	-0.08239307537341573	-0.1612772423820522	0.2676576603080933	-0.0422419659976417	0	0.6281792705478761	-0.02213486003293531	-0.1228505568790251	-0.9514990877740337	0.1334514931986246	-0.1031901958616347	0	0.02686679286121799	0.0457568672994735	0.07782567647904781	-0.08707825938315079	-0.102677613604275	-0.4208150007714749	0.6658280861907014	-0.2541272788980107	-0.0116296391403115	-0.5531748584162851	0.4783194693030133
0.34	-0.1140023734115967	0.001209810009860698	0.0001385249415855579	0.01122150000000005	0.83551351	0.42824047	0.0660922447025153	0.09229138018433999	-0.08380427390648634	-0.1565030898646309	0.2716494595635302	-0.04101715763310979	0	0.642061040667059	-0.02650816400278159	-0.1244018763785653	-0.8932177670837802	0.1373240541775591	-0.1036714569638369	0	0.02797035948579918	0.05220397864238938	0.08224557253687485	-0.08047153645840957	-0.1042182583210441	-0.4200683230865989	0.6704465799479873	-0.2619074524777805	-0.009522290029677078	-0.5544842361861236	0.4749486599407652
0.35	-0.09757913447825563	0.01033377176607135	0.001011557965474384	0.01101923000000005	0.83653128	0.4417362	0.01307040634343772	0.08317752983728662	-0.09065626044609457	-0.1216854879931963	0.2712634984999417	-0.02789392488560319	0	0.6192719778234012	-0.01001986734239154	-0.1244641289568583	-0.8103709624789809	0.1430733006805199	-0.1123590734729437	0	0.01211209195332696	0.04116852340688409	0.08004357945689254	-0.08159494433499327	-0.1022469670503806	-0.4135813182293714	0.6898973112142499	-0.2696420771528635	-0.007653219377177303	-0.5673215747519085	0.457259835936397
0.36	-0.1016467368250363	0.004818423548279022	0.0004914720328580142	0.01129743	0.83498176	0.45407201	-0.006658563915914444	0.09049219338775472	-0.08868174136351242	-0.1078415325266529	0.2754198611853578	-0.02464899233420036	0	0.6249086743260862	-0.01096614297492082	-0.1223199724230957	-0.7365103033525312	0.1446723910634177	-0.1099420261585184	0	0.01825411066728211	0.04609230020855211	0.08282124286164054	-0.07886574278945369	-0.1044810534191815	-0.4127253560552501	0.6961553081041977	-0.2810149905775114	-0.004087489375138463	-0.569852664672186	0.4519383677132379
0.37	-0.08548639584450266	0.008718727449186121	0.0003001982552014404	0.01092420000000005	0.83526449	0.46682796	-0.05081172810181009	0.08646480547260622	-0.09827509037928935	-0.08780034729872847	0.2731907652364871	-0.02185434146530975	0	0.5997147664629352	-5.104878622573174e-05	-0.1239402364423469	-0.6469139007269613	0.1474876610775584	-0.1095573144016085	0	0.000503059217362054	0.04222212631643552	0.08390390253617795	-0.07892005691217698	-0.1040787602625846	-0.4063274739928147	0.7159401262816198	-0.2842272943730811	-0.004010859123533324	-0.5776649795373288	0.4409777834374517
